<?xml version="1.0" encoding="UTF-8" standalone="no" ?>
<!DOCTYPE svg PUBLIC "-//W3C//DTD SVG 1.1//EN" "http://www.w3.org/Graphics/SVG/1.1/DTD/svg11.dtd">
<svg xmlns="http://www.w3.org/2000/svg" xmlns:xlink="http://www.w3.org/1999/xlink" version="1.1" width="500" height="200" viewBox="0 0 500 200" xml:space="preserve">
<desc>Created with Fabric.js 4.6.0</desc>
<defs>
</defs>
<g transform="matrix(0.85 0 0 0.85 156.5 33.25)" id="ym8zpBg1zS3q_StpFCyJS"  >
<path style="stroke: rgb(93,73,84); stroke-width: 4; stroke-dasharray: none; stroke-linecap: butt; stroke-dashoffset: 0; stroke-linejoin: miter; stroke-miterlimit: 4; fill: rgb(125,98,103); fill-rule: nonzero; opacity: 1;" vector-effect="non-scaling-stroke"  transform=" translate(0, 0)" d="M -36.65689 -36.65689 L 36.65689 -36.65689 L 36.65689 36.65689 L -36.65689 36.65689 z" stroke-linecap="round" />
</g>
<g transform="matrix(0.85 0 0 0.85 33.06 33.25)" id="yUIsa4Wpy-b0T0XmmZZRq"  >
<path style="stroke: rgb(93,73,84); stroke-width: 4; stroke-dasharray: none; stroke-linecap: butt; stroke-dashoffset: 0; stroke-linejoin: miter; stroke-miterlimit: 4; fill: rgb(125,98,103); fill-rule: nonzero; opacity: 1;" vector-effect="non-scaling-stroke"  transform=" translate(0, 0)" d="M -36.65689 -36.65689 L 36.65689 -36.65689 L 36.65689 36.65689 L -36.65689 36.65689 z" stroke-linecap="round" />
</g>
<g transform="matrix(0.85 0 0 0.85 94.42 33.25)" id="1rvIWmlRFMEar-sVFuyNM"  >
<path style="stroke: rgb(93,73,84); stroke-width: 4; stroke-dasharray: none; stroke-linecap: butt; stroke-dashoffset: 0; stroke-linejoin: miter; stroke-miterlimit: 4; fill: rgb(125,98,103); fill-rule: nonzero; opacity: 1;" vector-effect="non-scaling-stroke"  transform=" translate(0, 0)" d="M -36.65689 -36.65689 L 36.65689 -36.65689 L 36.65689 36.65689 L -36.65689 36.65689 z" stroke-linecap="round" />
</g>
<g transform="matrix(0.85 0 0 0.85 218.45 33.25)" id="vS-7YR-MZe5_44A_dKFs3"  >
<path style="stroke: rgb(93,73,84); stroke-width: 4; stroke-dasharray: none; stroke-linecap: butt; stroke-dashoffset: 0; stroke-linejoin: miter; stroke-miterlimit: 4; fill: rgb(125,98,103); fill-rule: nonzero; opacity: 1;" vector-effect="non-scaling-stroke"  transform=" translate(0, 0)" d="M -36.65689 -36.65689 L 36.65689 -36.65689 L 36.65689 36.65689 L -36.65689 36.65689 z" stroke-linecap="round" />
</g>
<g transform="matrix(0.85 0 0 0.85 156.5 95.06)" id="wpvS9fruplFCyObcOqic-"  >
<path style="stroke: rgb(93,73,84); stroke-width: 4; stroke-dasharray: none; stroke-linecap: butt; stroke-dashoffset: 0; stroke-linejoin: miter; stroke-miterlimit: 4; fill: rgb(125,98,103); fill-rule: nonzero; opacity: 1;" vector-effect="non-scaling-stroke"  transform=" translate(0, 0)" d="M -36.65689 -36.65689 L 36.65689 -36.65689 L 36.65689 36.65689 L -36.65689 36.65689 z" stroke-linecap="round" />
</g>
<g transform="matrix(0.85 0 0 0.85 33.06 95.23)" id="vbMvrPx-qfEQ3ELwcdeM1"  >
<path style="stroke: rgb(93,73,84); stroke-width: 4; stroke-dasharray: none; stroke-linecap: butt; stroke-dashoffset: 0; stroke-linejoin: miter; stroke-miterlimit: 4; fill: rgb(125,98,103); fill-rule: nonzero; opacity: 1;" vector-effect="non-scaling-stroke"  transform=" translate(0, 0)" d="M -36.65689 -36.65689 L 36.65689 -36.65689 L 36.65689 36.65689 L -36.65689 36.65689 z" stroke-linecap="round" />
</g>
<g transform="matrix(0.85 0 0 0.85 94.42 95.23)" id="FKpsrwOnKGHqXvTLlYVNL"  >
<path style="stroke: rgb(93,73,84); stroke-width: 4; stroke-dasharray: none; stroke-linecap: butt; stroke-dashoffset: 0; stroke-linejoin: miter; stroke-miterlimit: 4; fill: rgb(125,98,103); fill-rule: nonzero; opacity: 1;" vector-effect="non-scaling-stroke"  transform=" translate(0, 0)" d="M -36.65689 -36.65689 L 36.65689 -36.65689 L 36.65689 36.65689 L -36.65689 36.65689 z" stroke-linecap="round" />
</g>
<g transform="matrix(0.85 0 0 0.85 218.45 95.23)" id="dPwN4s4H5fb02TUuJFXEi"  >
<path style="stroke: rgb(93,73,84); stroke-width: 4; stroke-dasharray: none; stroke-linecap: butt; stroke-dashoffset: 0; stroke-linejoin: miter; stroke-miterlimit: 4; fill: rgb(125,98,103); fill-rule: nonzero; opacity: 1;" vector-effect="non-scaling-stroke"  transform=" translate(0, 0)" d="M -36.65689 -36.65689 L 36.65689 -36.65689 L 36.65689 36.65689 L -36.65689 36.65689 z" stroke-linecap="round" />
</g>
<g transform="matrix(0.85 0 0 0.85 156.5 157.06)" id="aFEHm1BXLoQg9kc-dyiPc"  >
<path style="stroke: rgb(93,73,84); stroke-width: 4; stroke-dasharray: none; stroke-linecap: butt; stroke-dashoffset: 0; stroke-linejoin: miter; stroke-miterlimit: 4; fill: rgb(125,98,103); fill-rule: nonzero; opacity: 1;" vector-effect="non-scaling-stroke"  transform=" translate(0, 0)" d="M -36.65689 -36.65689 L 36.65689 -36.65689 L 36.65689 36.65689 L -36.65689 36.65689 z" stroke-linecap="round" />
</g>
<g transform="matrix(0.85 0 0 0.85 33.06 157.06)" id="pWrmIoLq-kh7QKpqyuXea"  >
<path style="stroke: rgb(93,73,84); stroke-width: 4; stroke-dasharray: none; stroke-linecap: butt; stroke-dashoffset: 0; stroke-linejoin: miter; stroke-miterlimit: 4; fill: rgb(125,98,103); fill-rule: nonzero; opacity: 1;" vector-effect="non-scaling-stroke"  transform=" translate(0, 0)" d="M -36.65689 -36.65689 L 36.65689 -36.65689 L 36.65689 36.65689 L -36.65689 36.65689 z" stroke-linecap="round" />
</g>
<g transform="matrix(0.85 0 0 0.85 94.42 157.06)" id="OlDpHnqYWARFqkXwePsOJ"  >
<path style="stroke: rgb(93,73,84); stroke-width: 4; stroke-dasharray: none; stroke-linecap: butt; stroke-dashoffset: 0; stroke-linejoin: miter; stroke-miterlimit: 4; fill: rgb(125,98,103); fill-rule: nonzero; opacity: 1;" vector-effect="non-scaling-stroke"  transform=" translate(0, 0)" d="M -36.65689 -36.65689 L 36.65689 -36.65689 L 36.65689 36.65689 L -36.65689 36.65689 z" stroke-linecap="round" />
</g>
<g transform="matrix(0.85 0 0 0.85 218.45 157.06)" id="vzzZQO-G9jix4GjKsxdhr"  >
<path style="stroke: rgb(93,73,84); stroke-width: 4; stroke-dasharray: none; stroke-linecap: butt; stroke-dashoffset: 0; stroke-linejoin: miter; stroke-miterlimit: 4; fill: rgb(125,98,103); fill-rule: nonzero; opacity: 1;" vector-effect="non-scaling-stroke"  transform=" translate(0, 0)" d="M -36.65689 -36.65689 L 36.65689 -36.65689 L 36.65689 36.65689 L -36.65689 36.65689 z" stroke-linecap="round" />
</g>
<g transform="matrix(0.85 0 0 0.85 404.72 33.06)" id="fRDkHygDHW2PwC0rQUKSb"  >
<path style="stroke: rgb(93,73,84); stroke-width: 4; stroke-dasharray: none; stroke-linecap: butt; stroke-dashoffset: 0; stroke-linejoin: miter; stroke-miterlimit: 4; fill: rgb(125,98,103); fill-rule: nonzero; opacity: 1;" vector-effect="non-scaling-stroke"  transform=" translate(0, 0)" d="M -36.65689 -36.65689 L 36.65689 -36.65689 L 36.65689 36.65689 L -36.65689 36.65689 z" stroke-linecap="round" />
</g>
<g transform="matrix(0.85 0 0 0.85 466.3 33.06)" id="3T7wQewW2yGd3ulOaP6sD"  >
<path style="stroke: rgb(93,73,84); stroke-width: 4; stroke-dasharray: none; stroke-linecap: butt; stroke-dashoffset: 0; stroke-linejoin: miter; stroke-miterlimit: 4; fill: rgb(125,98,103); fill-rule: nonzero; opacity: 1;" vector-effect="non-scaling-stroke"  transform=" translate(0, 0)" d="M -36.65689 -36.65689 L 36.65689 -36.65689 L 36.65689 36.65689 L -36.65689 36.65689 z" stroke-linecap="round" />
</g>
<g transform="matrix(0.85 0 0 0.85 404.72 95.23)" id="j8-pgYsQeAJLSrkQci2pc"  >
<path style="stroke: rgb(93,73,84); stroke-width: 4; stroke-dasharray: none; stroke-linecap: butt; stroke-dashoffset: 0; stroke-linejoin: miter; stroke-miterlimit: 4; fill: rgb(125,98,103); fill-rule: nonzero; opacity: 1;" vector-effect="non-scaling-stroke"  transform=" translate(0, 0)" d="M -36.65689 -36.65689 L 36.65689 -36.65689 L 36.65689 36.65689 L -36.65689 36.65689 z" stroke-linecap="round" />
</g>
<g transform="matrix(0.85 0 0 0.85 466.3 95.23)" id="cGyuSkDLoHc3W7zsKp-Rg"  >
<path style="stroke: rgb(93,73,84); stroke-width: 4; stroke-dasharray: none; stroke-linecap: butt; stroke-dashoffset: 0; stroke-linejoin: miter; stroke-miterlimit: 4; fill: rgb(125,98,103); fill-rule: nonzero; opacity: 1;" vector-effect="non-scaling-stroke"  transform=" translate(0, 0)" d="M -36.65689 -36.65689 L 36.65689 -36.65689 L 36.65689 36.65689 L -36.65689 36.65689 z" stroke-linecap="round" />
</g>
<g transform="matrix(0.85 0 0 0.85 404.72 157.06)" id="Ljt-AGp5_DDnvhNMlYH_T"  >
<path style="stroke: rgb(93,73,84); stroke-width: 4; stroke-dasharray: none; stroke-linecap: butt; stroke-dashoffset: 0; stroke-linejoin: miter; stroke-miterlimit: 4; fill: rgb(125,98,103); fill-rule: nonzero; opacity: 1;" vector-effect="non-scaling-stroke"  transform=" translate(0, 0)" d="M -36.65689 -36.65689 L 36.65689 -36.65689 L 36.65689 36.65689 L -36.65689 36.65689 z" stroke-linecap="round" />
</g>
<g transform="matrix(0.85 0 0 0.85 466.3 157.06)" id="piQaS7wnjTTqABw1Clt18"  >
<path style="stroke: rgb(93,73,84); stroke-width: 4; stroke-dasharray: none; stroke-linecap: butt; stroke-dashoffset: 0; stroke-linejoin: miter; stroke-miterlimit: 4; fill: rgb(125,98,103); fill-rule: nonzero; opacity: 1;" vector-effect="non-scaling-stroke"  transform=" translate(0, 0)" d="M -36.65689 -36.65689 L 36.65689 -36.65689 L 36.65689 36.65689 L -36.65689 36.65689 z" stroke-linecap="round" />
</g>
<g transform="matrix(0.85 0 0 0.85 280.43 95.06)" id="Z2bMvcF9PKf1wJ0JbmHfv"  >
<path style="stroke: rgb(93,73,84); stroke-width: 4; stroke-dasharray: none; stroke-linecap: butt; stroke-dashoffset: 0; stroke-linejoin: miter; stroke-miterlimit: 4; fill: rgb(125,98,103); fill-rule: nonzero; opacity: 1;" vector-effect="non-scaling-stroke"  transform=" translate(0, 0)" d="M -36.65689 -36.65689 L 36.65689 -36.65689 L 36.65689 36.65689 L -36.65689 36.65689 z" stroke-linecap="round" />
</g>
<g transform="matrix(0.85 0 0 0.85 342.64 95.06)" id="sqgB4myv0rNp-vmXMedrb"  >
<path style="stroke: rgb(93,73,84); stroke-width: 4; stroke-dasharray: none; stroke-linecap: butt; stroke-dashoffset: 0; stroke-linejoin: miter; stroke-miterlimit: 4; fill: rgb(125,98,103); fill-rule: nonzero; opacity: 1;" vector-effect="non-scaling-stroke"  transform=" translate(0, 0)" d="M -36.65689 -36.65689 L 36.65689 -36.65689 L 36.65689 36.65689 L -36.65689 36.65689 z" stroke-linecap="round" />
</g>
</svg>