<?xml version="1.0" encoding="UTF-8" standalone="no" ?>
<!DOCTYPE svg PUBLIC "-//W3C//DTD SVG 1.1//EN" "http://www.w3.org/Graphics/SVG/1.1/DTD/svg11.dtd">
<svg xmlns="http://www.w3.org/2000/svg" xmlns:xlink="http://www.w3.org/1999/xlink" version="1.1" width="500" height="200" viewBox="0 0 500 200" xml:space="preserve">
<desc>Created with Fabric.js 4.6.0</desc>
<defs>
</defs>
<g transform="matrix(0.85 0 0 0.85 155.93 33.44)" id="ym8zpBg1zS3q_StpFCyJS"  >
<path style="stroke: rgb(93,73,84); stroke-width: 4; stroke-dasharray: none; stroke-linecap: butt; stroke-dashoffset: 0; stroke-linejoin: miter; stroke-miterlimit: 4; fill: rgb(125,98,103); fill-rule: nonzero; opacity: 1;" vector-effect="non-scaling-stroke"  transform=" translate(0, 0)" d="M -36.65689 -36.65689 L 36.65689 -36.65689 L 36.65689 36.65689 L -36.65689 36.65689 z" stroke-linecap="round" />
</g>
<g transform="matrix(0.85 0 0 0.85 33.26 33.44)" id="yUIsa4Wpy-b0T0XmmZZRq"  >
<path style="stroke: rgb(93,73,84); stroke-width: 4; stroke-dasharray: none; stroke-linecap: butt; stroke-dashoffset: 0; stroke-linejoin: miter; stroke-miterlimit: 4; fill: rgb(125,98,103); fill-rule: nonzero; opacity: 1;" vector-effect="non-scaling-stroke"  transform=" translate(0, 0)" d="M -36.65689 -36.65689 L 36.65689 -36.65689 L 36.65689 36.65689 L -36.65689 36.65689 z" stroke-linecap="round" />
</g>
<g transform="matrix(0.85 0 0 0.85 94.62 33.44)" id="1rvIWmlRFMEar-sVFuyNM"  >
<path style="stroke: rgb(93,73,84); stroke-width: 4; stroke-dasharray: none; stroke-linecap: butt; stroke-dashoffset: 0; stroke-linejoin: miter; stroke-miterlimit: 4; fill: rgb(125,98,103); fill-rule: nonzero; opacity: 1;" vector-effect="non-scaling-stroke"  transform=" translate(0, 0)" d="M -36.65689 -36.65689 L 36.65689 -36.65689 L 36.65689 36.65689 L -36.65689 36.65689 z" stroke-linecap="round" />
</g>
<g transform="matrix(0.85 0 0 0.85 217.88 33.44)" id="vS-7YR-MZe5_44A_dKFs3"  >
<path style="stroke: rgb(93,73,84); stroke-width: 4; stroke-dasharray: none; stroke-linecap: butt; stroke-dashoffset: 0; stroke-linejoin: miter; stroke-miterlimit: 4; fill: rgb(125,98,103); fill-rule: nonzero; opacity: 1;" vector-effect="non-scaling-stroke"  transform=" translate(0, 0)" d="M -36.65689 -36.65689 L 36.65689 -36.65689 L 36.65689 36.65689 L -36.65689 36.65689 z" stroke-linecap="round" />
</g>
<g transform="matrix(0.85 0 0 0.85 156.7 95.26)" id="wpvS9fruplFCyObcOqic-"  >
<path style="stroke: rgb(93,73,84); stroke-width: 4; stroke-dasharray: none; stroke-linecap: butt; stroke-dashoffset: 0; stroke-linejoin: miter; stroke-miterlimit: 4; fill: rgb(125,98,103); fill-rule: nonzero; opacity: 1;" vector-effect="non-scaling-stroke"  transform=" translate(0, 0)" d="M -36.65689 -36.65689 L 36.65689 -36.65689 L 36.65689 36.65689 L -36.65689 36.65689 z" stroke-linecap="round" />
</g>
<g transform="matrix(0.85 0 0 0.85 33.26 95.43)" id="vbMvrPx-qfEQ3ELwcdeM1"  >
<path style="stroke: rgb(93,73,84); stroke-width: 4; stroke-dasharray: none; stroke-linecap: butt; stroke-dashoffset: 0; stroke-linejoin: miter; stroke-miterlimit: 4; fill: rgb(125,98,103); fill-rule: nonzero; opacity: 1;" vector-effect="non-scaling-stroke"  transform=" translate(0, 0)" d="M -36.65689 -36.65689 L 36.65689 -36.65689 L 36.65689 36.65689 L -36.65689 36.65689 z" stroke-linecap="round" />
</g>
<g transform="matrix(0.85 0 0 0.85 94.62 95.43)" id="FKpsrwOnKGHqXvTLlYVNL"  >
<path style="stroke: rgb(93,73,84); stroke-width: 4; stroke-dasharray: none; stroke-linecap: butt; stroke-dashoffset: 0; stroke-linejoin: miter; stroke-miterlimit: 4; fill: rgb(125,98,103); fill-rule: nonzero; opacity: 1;" vector-effect="non-scaling-stroke"  transform=" translate(0, 0)" d="M -36.65689 -36.65689 L 36.65689 -36.65689 L 36.65689 36.65689 L -36.65689 36.65689 z" stroke-linecap="round" />
</g>
<g transform="matrix(0.85 0 0 0.85 218.65 95.43)" id="dPwN4s4H5fb02TUuJFXEi"  >
<path style="stroke: rgb(93,73,84); stroke-width: 4; stroke-dasharray: none; stroke-linecap: butt; stroke-dashoffset: 0; stroke-linejoin: miter; stroke-miterlimit: 4; fill: rgb(125,98,103); fill-rule: nonzero; opacity: 1;" vector-effect="non-scaling-stroke"  transform=" translate(0, 0)" d="M -36.65689 -36.65689 L 36.65689 -36.65689 L 36.65689 36.65689 L -36.65689 36.65689 z" stroke-linecap="round" />
</g>
<g transform="matrix(0.85 0 0 0.85 156.7 157.26)" id="aFEHm1BXLoQg9kc-dyiPc"  >
<path style="stroke: rgb(93,73,84); stroke-width: 4; stroke-dasharray: none; stroke-linecap: butt; stroke-dashoffset: 0; stroke-linejoin: miter; stroke-miterlimit: 4; fill: rgb(125,98,103); fill-rule: nonzero; opacity: 1;" vector-effect="non-scaling-stroke"  transform=" translate(0, 0)" d="M -36.65689 -36.65689 L 36.65689 -36.65689 L 36.65689 36.65689 L -36.65689 36.65689 z" stroke-linecap="round" />
</g>
<g transform="matrix(0.85 0 0 0.85 33.26 157.26)" id="pWrmIoLq-kh7QKpqyuXea"  >
<path style="stroke: rgb(93,73,84); stroke-width: 4; stroke-dasharray: none; stroke-linecap: butt; stroke-dashoffset: 0; stroke-linejoin: miter; stroke-miterlimit: 4; fill: rgb(125,98,103); fill-rule: nonzero; opacity: 1;" vector-effect="non-scaling-stroke"  transform=" translate(0, 0)" d="M -36.65689 -36.65689 L 36.65689 -36.65689 L 36.65689 36.65689 L -36.65689 36.65689 z" stroke-linecap="round" />
</g>
<g transform="matrix(0.85 0 0 0.85 94.62 157.26)" id="OlDpHnqYWARFqkXwePsOJ"  >
<path style="stroke: rgb(93,73,84); stroke-width: 4; stroke-dasharray: none; stroke-linecap: butt; stroke-dashoffset: 0; stroke-linejoin: miter; stroke-miterlimit: 4; fill: rgb(125,98,103); fill-rule: nonzero; opacity: 1;" vector-effect="non-scaling-stroke"  transform=" translate(0, 0)" d="M -36.65689 -36.65689 L 36.65689 -36.65689 L 36.65689 36.65689 L -36.65689 36.65689 z" stroke-linecap="round" />
</g>
<g transform="matrix(0.85 0 0 0.85 218.65 157.26)" id="vzzZQO-G9jix4GjKsxdhr"  >
<path style="stroke: rgb(93,73,84); stroke-width: 4; stroke-dasharray: none; stroke-linecap: butt; stroke-dashoffset: 0; stroke-linejoin: miter; stroke-miterlimit: 4; fill: rgb(125,98,103); fill-rule: nonzero; opacity: 1;" vector-effect="non-scaling-stroke"  transform=" translate(0, 0)" d="M -36.65689 -36.65689 L 36.65689 -36.65689 L 36.65689 36.65689 L -36.65689 36.65689 z" stroke-linecap="round" />
</g>
<g transform="matrix(0.85 0 0 0.85 404.92 33.26)" id="fRDkHygDHW2PwC0rQUKSb"  >
<path style="stroke: rgb(93,73,84); stroke-width: 4; stroke-dasharray: none; stroke-linecap: butt; stroke-dashoffset: 0; stroke-linejoin: miter; stroke-miterlimit: 4; fill: rgb(125,98,103); fill-rule: nonzero; opacity: 1;" vector-effect="non-scaling-stroke"  transform=" translate(0, 0)" d="M -36.65689 -36.65689 L 36.65689 -36.65689 L 36.65689 36.65689 L -36.65689 36.65689 z" stroke-linecap="round" />
</g>
<g transform="matrix(0.85 0 0 0.85 466.5 33.26)" id="3T7wQewW2yGd3ulOaP6sD"  >
<path style="stroke: rgb(93,73,84); stroke-width: 4; stroke-dasharray: none; stroke-linecap: butt; stroke-dashoffset: 0; stroke-linejoin: miter; stroke-miterlimit: 4; fill: rgb(125,98,103); fill-rule: nonzero; opacity: 1;" vector-effect="non-scaling-stroke"  transform=" translate(0, 0)" d="M -36.65689 -36.65689 L 36.65689 -36.65689 L 36.65689 36.65689 L -36.65689 36.65689 z" stroke-linecap="round" />
</g>
<g transform="matrix(0.85 0 0 0.85 404.92 95.43)" id="j8-pgYsQeAJLSrkQci2pc"  >
<path style="stroke: rgb(93,73,84); stroke-width: 4; stroke-dasharray: none; stroke-linecap: butt; stroke-dashoffset: 0; stroke-linejoin: miter; stroke-miterlimit: 4; fill: rgb(125,98,103); fill-rule: nonzero; opacity: 1;" vector-effect="non-scaling-stroke"  transform=" translate(0, 0)" d="M -36.65689 -36.65689 L 36.65689 -36.65689 L 36.65689 36.65689 L -36.65689 36.65689 z" stroke-linecap="round" />
</g>
<g transform="matrix(0.85 0 0 0.85 466.5 95.43)" id="cGyuSkDLoHc3W7zsKp-Rg"  >
<path style="stroke: rgb(93,73,84); stroke-width: 4; stroke-dasharray: none; stroke-linecap: butt; stroke-dashoffset: 0; stroke-linejoin: miter; stroke-miterlimit: 4; fill: rgb(125,98,103); fill-rule: nonzero; opacity: 1;" vector-effect="non-scaling-stroke"  transform=" translate(0, 0)" d="M -36.65689 -36.65689 L 36.65689 -36.65689 L 36.65689 36.65689 L -36.65689 36.65689 z" stroke-linecap="round" />
</g>
<g transform="matrix(0.85 0 0 0.85 404.92 157.26)" id="Ljt-AGp5_DDnvhNMlYH_T"  >
<path style="stroke: rgb(93,73,84); stroke-width: 4; stroke-dasharray: none; stroke-linecap: butt; stroke-dashoffset: 0; stroke-linejoin: miter; stroke-miterlimit: 4; fill: rgb(125,98,103); fill-rule: nonzero; opacity: 1;" vector-effect="non-scaling-stroke"  transform=" translate(0, 0)" d="M -36.65689 -36.65689 L 36.65689 -36.65689 L 36.65689 36.65689 L -36.65689 36.65689 z" stroke-linecap="round" />
</g>
<g transform="matrix(0.85 0 0 0.85 466.5 157.26)" id="piQaS7wnjTTqABw1Clt18"  >
<path style="stroke: rgb(93,73,84); stroke-width: 4; stroke-dasharray: none; stroke-linecap: butt; stroke-dashoffset: 0; stroke-linejoin: miter; stroke-miterlimit: 4; fill: rgb(125,98,103); fill-rule: nonzero; opacity: 1;" vector-effect="non-scaling-stroke"  transform=" translate(0, 0)" d="M -36.65689 -36.65689 L 36.65689 -36.65689 L 36.65689 36.65689 L -36.65689 36.65689 z" stroke-linecap="round" />
</g>
<g transform="matrix(0.85 0 0 0.85 280.81 95.43)" id="Z2bMvcF9PKf1wJ0JbmHfv"  >
<path style="stroke: rgb(93,73,84); stroke-width: 4; stroke-dasharray: none; stroke-linecap: butt; stroke-dashoffset: 0; stroke-linejoin: miter; stroke-miterlimit: 4; fill: rgb(125,98,103); fill-rule: nonzero; opacity: 1;" vector-effect="non-scaling-stroke"  transform=" translate(0, 0)" d="M -36.65689 -36.65689 L 36.65689 -36.65689 L 36.65689 36.65689 L -36.65689 36.65689 z" stroke-linecap="round" />
</g>
<g transform="matrix(0.85 0 0 0.85 342.83 95.43)" id="sqgB4myv0rNp-vmXMedrb"  >
<path style="stroke: rgb(93,73,84); stroke-width: 4; stroke-dasharray: none; stroke-linecap: butt; stroke-dashoffset: 0; stroke-linejoin: miter; stroke-miterlimit: 4; fill: rgb(125,98,103); fill-rule: nonzero; opacity: 1;" vector-effect="non-scaling-stroke"  transform=" translate(0, 0)" d="M -36.65689 -36.65689 L 36.65689 -36.65689 L 36.65689 36.65689 L -36.65689 36.65689 z" stroke-linecap="round" />
</g>
</svg>